<svg xmlns="http://www.w3.org/2000/svg" xmlns:xlink="http://www.w3.org/1999/xlink" width="500" zoomAndPan="magnify" viewBox="0 0 375 374.999991" height="500" preserveAspectRatio="xMidYMid meet" version="1.2"><defs><clipPath id="75f7293bd2"><rect x="0" width="330" y="0" height="112"/></clipPath><clipPath id="74241fa371"><rect x="0" width="61" y="0" height="85"/></clipPath></defs><g id="219543edee"><g transform="matrix(1,0,0,1,24,131)"><g clip-path="url(#75f7293bd2)"><g style="fill:#ffffff;fill-opacity:1;"><g transform="translate(0.402713, 80.909753)"><path style="stroke:none" d="M 34.921875 -18.25 C 35.347656 -18.25 35.71875 -18.25 36.03125 -18.25 C 36.351562 -18.25 36.515625 -18.25 36.515625 -18.25 L 36.515625 -27.78125 L 55.5625 -27.78125 L 55.5625 -8.328125 C 55.5625 -8.328125 55.109375 -7.851562 54.203125 -6.90625 C 53.304688 -5.957031 51.90625 -4.847656 50 -3.578125 C 48.101562 -2.304688 45.710938 -1.191406 42.828125 -0.234375 C 39.941406 0.710938 36.515625 1.1875 32.546875 1.1875 C 28.359375 1.1875 24.492188 0.445312 20.953125 -1.03125 C 17.410156 -2.507812 14.300781 -4.554688 11.625 -7.171875 C 8.957031 -9.796875 6.878906 -12.867188 5.390625 -16.390625 C 3.910156 -19.910156 3.171875 -23.707031 3.171875 -27.78125 C 3.171875 -31.851562 3.910156 -35.648438 5.390625 -39.171875 C 6.878906 -42.691406 8.957031 -45.757812 11.625 -48.375 C 14.300781 -51 17.410156 -53.050781 20.953125 -54.53125 C 24.492188 -56.007812 28.359375 -56.75 32.546875 -56.75 C 36.296875 -56.75 39.570312 -56.3125 42.375 -55.4375 C 45.1875 -54.570312 47.503906 -53.554688 49.328125 -52.390625 C 51.148438 -51.222656 52.507812 -50.203125 53.40625 -49.328125 C 54.3125 -48.453125 54.765625 -48.015625 54.765625 -48.015625 L 45.25 -32.9375 C 45.25 -32.9375 44.769531 -33.304688 43.8125 -34.046875 C 42.863281 -34.785156 41.609375 -35.515625 40.046875 -36.234375 C 38.484375 -36.953125 36.773438 -37.3125 34.921875 -37.3125 C 32.171875 -37.3125 29.894531 -36.421875 28.09375 -34.640625 C 26.300781 -32.867188 25.40625 -30.582031 25.40625 -27.78125 C 25.40625 -25.03125 26.300781 -22.753906 28.09375 -20.953125 C 29.894531 -19.148438 32.171875 -18.25 34.921875 -18.25 Z M 34.921875 -18.25 "/></g></g><g style="fill:#ffffff;fill-opacity:1;"><g transform="translate(59.132738, 80.909753)"><path style="stroke:none" d="M 59.53125 0 L 35.71875 0 L 26.1875 -18.25 L 25.40625 -18.25 L 25.40625 0 L 4.765625 0 L 4.765625 -55.5625 C 4.765625 -55.5625 5.398438 -55.597656 6.671875 -55.671875 C 7.941406 -55.753906 9.660156 -55.847656 11.828125 -55.953125 C 13.992188 -56.066406 16.453125 -56.160156 19.203125 -56.234375 C 21.960938 -56.316406 24.820312 -56.359375 27.78125 -56.359375 C 33.601562 -56.359375 38.390625 -55.535156 42.140625 -53.890625 C 45.898438 -52.253906 48.679688 -49.976562 50.484375 -47.0625 C 52.285156 -44.15625 53.1875 -40.769531 53.1875 -36.90625 C 53.1875 -34.050781 52.828125 -31.628906 52.109375 -29.640625 C 51.390625 -27.660156 50.554688 -26.0625 49.609375 -24.84375 C 48.660156 -23.625 47.828125 -22.75 47.109375 -22.21875 C 46.390625 -21.695312 46.03125 -21.4375 46.03125 -21.4375 Z M 25.40625 -32.546875 L 27.78125 -32.546875 C 29.15625 -32.546875 30.289062 -32.976562 31.1875 -33.84375 C 32.09375 -34.71875 32.546875 -35.738281 32.546875 -36.90625 C 32.546875 -38.125 32.09375 -39.15625 31.1875 -40 C 30.289062 -40.851562 29.15625 -41.28125 27.78125 -41.28125 L 25.40625 -41.28125 Z M 25.40625 -32.546875 "/></g></g><g style="fill:#ffffff;fill-opacity:1;"><g transform="translate(117.069114, 80.909753)"><path style="stroke:none" d="M 44.046875 -55.5625 C 44.046875 -55.507812 44.285156 -54.6875 44.765625 -53.09375 C 45.242188 -51.507812 45.863281 -49.394531 46.625 -46.75 C 47.394531 -44.101562 48.253906 -41.140625 49.203125 -37.859375 C 50.160156 -34.578125 51.15625 -31.175781 52.1875 -27.65625 C 53.21875 -24.144531 54.222656 -20.75 55.203125 -17.46875 C 56.179688 -14.1875 57.050781 -11.234375 57.8125 -8.609375 C 58.582031 -5.992188 59.191406 -3.90625 59.640625 -2.34375 C 60.097656 -0.78125 60.328125 0 60.328125 0 L 37.3125 0 L 35.71875 -7.9375 L 25.40625 -7.9375 L 23.8125 0 L 0.796875 0 L 17.0625 -55.5625 Z M 27.78125 -20.640625 L 33.34375 -20.640625 L 30.5625 -34.921875 Z M 27.78125 -20.640625 "/></g></g><g style="fill:#ffffff;fill-opacity:1;"><g transform="translate(178.180086, 80.909753)"><path style="stroke:none" d="M 0.796875 -55.5625 L 23.8125 -55.5625 L 29.765625 -23.015625 L 35.71875 -55.5625 L 58.734375 -55.5625 L 43.265625 0 L 16.265625 0 Z M 0.796875 -55.5625 "/></g></g><g style="fill:#ffffff;fill-opacity:1;"><g transform="translate(237.703771, 80.909753)"><path style="stroke:none" d="M 25.40625 -55.5625 L 25.40625 0 L 4.765625 0 L 4.765625 -55.5625 Z M 25.40625 -55.5625 "/></g></g><g style="fill:#ffffff;fill-opacity:1;"><g transform="translate(267.862422, 80.909753)"><path style="stroke:none" d="M 15.078125 -27.78125 L 0 -55.5625 L 23.8125 -55.5625 L 29.375 -40.484375 L 34.921875 -55.5625 L 58.734375 -55.5625 L 43.65625 -27.78125 L 59.53125 0 L 35.71875 0 L 29.375 -16.671875 L 23.015625 0 L -0.796875 0 Z M 15.078125 -27.78125 "/></g></g></g></g><g transform="matrix(1,0,0,1,286,151)"><g clip-path="url(#74241fa371)"><g style="fill:#ff3131;fill-opacity:1;"><g transform="translate(3.970694, 61.067897)"><path style="stroke:none" d="M 55.828125 0 L 39.515625 0 L 26.4375 -18.859375 L 13.359375 0 L -2.28125 0 L 18.65625 -29.796875 L 1.203125 -55.359375 L 16.234375 -55.359375 L 26.4375 -40.25 L 36.640625 -55.359375 L 52.328125 -55.359375 L 34.21875 -29.796875 Z M 55.828125 0 "/></g></g></g></g></g></svg>