<svg xmlns="http://www.w3.org/2000/svg" xmlns:xlink="http://www.w3.org/1999/xlink" width="500" zoomAndPan="magnify" viewBox="0 0 375 374.999991" height="500" preserveAspectRatio="xMidYMid meet" version="1.2"><defs><clipPath id="f87a19b8ba"><path d="M 112.5 112.5 L 262.5 112.5 L 262.5 262.5 L 112.5 262.5 Z M 112.5 112.5 "/></clipPath><clipPath id="b922458528"><path d="M 21.5 21.5 L 353.75 21.5 L 353.75 353.75 L 21.5 353.75 Z M 21.5 21.5 "/></clipPath><clipPath id="5d25fb094a"><path d="M 135 69 L 277 69 L 277 353.75 L 135 353.75 Z M 135 69 "/></clipPath><clipPath id="c25c4e5b3e"><path d="M 125 58 L 288 58 L 288 353.75 L 125 353.75 Z M 125 58 "/></clipPath></defs><g id="e6c4685462"><path style=" stroke:none;fill-rule:nonzero;fill:#000000;fill-opacity:1;" d="M 187.5 147.683594 C 165.542969 147.683594 147.679688 165.539062 147.679688 187.496094 C 147.679688 209.453125 165.542969 227.316406 187.5 227.316406 C 209.457031 227.316406 227.320312 209.453125 227.320312 187.496094 C 227.320312 165.539062 209.457031 147.683594 187.5 147.683594 Z M 187.5 213.265625 C 173.292969 213.265625 161.738281 201.703125 161.738281 187.496094 C 161.738281 173.289062 173.292969 161.734375 187.5 161.734375 C 201.707031 161.734375 213.265625 173.289062 213.265625 187.496094 C 213.265625 201.703125 201.707031 213.265625 187.5 213.265625 Z M 187.5 213.265625 "/><path style=" stroke:none;fill-rule:nonzero;fill:#000000;fill-opacity:1;" d="M 228.816406 138.128906 C 224.375 138.128906 220.769531 141.734375 220.769531 146.179688 C 220.769531 150.628906 224.375 154.226562 228.816406 154.226562 C 233.261719 154.226562 236.863281 150.628906 236.863281 146.179688 C 236.863281 141.734375 233.261719 138.128906 228.816406 138.128906 Z M 228.816406 138.128906 "/><g clip-rule="nonzero" clip-path="url(#f87a19b8ba)"><path style=" stroke:none;fill-rule:nonzero;fill:#000000;fill-opacity:1;" d="M 226.785156 112.503906 L 148.214844 112.503906 C 128.523438 112.503906 112.5 128.519531 112.5 148.210938 L 112.5 226.78125 C 112.5 246.472656 128.523438 262.496094 148.214844 262.496094 L 226.785156 262.496094 C 246.476562 262.496094 262.5 246.472656 262.5 226.78125 L 262.5 148.210938 C 262.5 128.519531 246.476562 112.503906 226.785156 112.503906 Z M 248.441406 226.78125 C 248.441406 238.722656 238.726562 248.445312 226.785156 248.445312 L 148.214844 248.445312 C 136.273438 248.445312 126.558594 238.722656 126.558594 226.78125 L 126.558594 148.210938 C 126.558594 136.269531 136.273438 126.554688 148.214844 126.554688 L 226.785156 126.554688 C 238.726562 126.554688 248.441406 136.269531 248.441406 148.210938 Z M 248.441406 226.78125 "/></g><g clip-rule="nonzero" clip-path="url(#b922458528)"><path style="fill-rule:nonzero;fill:#4267b2;fill-opacity:1;stroke-width:1;stroke-linecap:butt;stroke-linejoin:miter;stroke:#4267b2;stroke-opacity:1;stroke-miterlimit:10;" d="M 462.701115 234.598686 C 462.701115 238.238905 462.612074 241.86865 462.433991 245.503632 C 462.255909 249.133376 461.988785 252.757883 461.632619 256.377152 C 461.271216 259.99642 460.826009 263.605214 460.296999 267.203532 C 459.762751 270.80185 459.139461 274.384454 458.432368 277.951346 C 457.720038 281.518238 456.923903 285.064178 456.038727 288.589168 C 455.158789 292.119396 454.18981 295.623435 453.131789 299.101285 C 452.079006 302.579135 450.937182 306.030797 449.711554 309.45627 C 448.485926 312.881743 447.176495 316.270552 445.788497 319.633172 C 444.395262 322.990554 442.923461 326.316511 441.367856 329.600565 C 439.812251 332.889857 438.178081 336.137247 436.465344 339.342736 C 434.74737 342.553462 432.956068 345.717049 431.086199 348.833496 C 429.216331 351.955181 427.273135 355.024488 425.251372 358.046656 C 423.22961 361.068825 421.139757 364.043853 418.971339 366.966504 C 416.808158 369.883918 414.571648 372.748954 412.261811 375.561613 C 409.957212 378.374272 407.579284 381.124078 405.138503 383.821508 C 402.697723 386.513699 400.188852 389.148275 397.617128 391.719999 C 395.045405 394.291722 392.416066 396.795356 389.718637 399.241374 C 387.026446 401.682154 384.271402 404.054844 381.463981 406.364681 C 378.651322 408.669281 375.786285 410.90579 372.863634 413.074209 C 369.940983 415.23739 366.971192 417.33248 363.949024 419.354243 C 360.921618 421.370767 357.85231 423.319201 354.735863 425.18907 C 351.614178 427.058938 348.450592 428.85024 345.245103 430.562977 C 342.039615 432.275713 338.792225 433.909884 335.502932 435.465489 C 332.21364 437.021093 328.892922 438.492895 325.530302 439.88613 C 322.172919 441.279365 318.778872 442.583559 315.358637 443.809187 C 311.933164 445.034815 308.481502 446.176639 305.003652 447.23466 C 301.520564 448.287443 298.016525 449.256422 294.491536 450.141598 C 290.961308 451.026774 287.415367 451.822908 283.848476 452.530001 C 280.281584 453.242332 276.698979 453.860383 273.105899 454.394632 C 269.507581 454.92888 265.898788 455.374086 262.279519 455.730252 C 258.66025 456.086417 255.035743 456.353541 251.400761 456.531624 C 247.771017 456.709707 244.136035 456.798748 240.501053 456.798748 C 236.866071 456.798748 233.231089 456.709707 229.596107 456.531624 C 225.966363 456.353541 222.341856 456.086417 218.722587 455.730252 C 215.103318 455.374086 211.494525 454.92888 207.896207 454.394632 C 204.297889 453.860383 200.715284 453.242332 197.148393 452.530001 C 193.586739 451.822908 190.03556 451.026774 186.51057 450.141598 C 182.980343 449.256422 179.476304 448.287443 175.998454 447.23466 C 172.520604 446.176639 169.068942 445.034815 165.643469 443.809187 C 162.217996 442.583559 158.829187 441.279365 155.466567 439.88613 C 152.109184 438.492895 148.783228 437.021093 145.499174 435.465489 C 142.209882 433.909884 138.962491 432.275713 135.757003 430.562977 C 132.546277 428.85024 129.387928 427.058938 126.266243 425.18907 C 123.149796 423.319201 120.07525 421.370767 117.053082 419.354243 C 114.030914 417.33248 111.055886 415.23739 108.133234 413.074209 C 105.215821 410.90579 102.350784 408.669281 99.538125 406.364681 C 96.725466 404.054844 93.97566 401.682154 91.278231 399.241374 C 88.58604 396.795356 85.951463 394.291722 83.37974 391.719999 C 80.808016 389.148275 78.304383 386.513699 75.858365 383.821508 C 73.417584 381.124078 71.044894 378.374272 68.735057 375.561613 C 66.430458 372.748954 64.193948 369.883918 62.02553 366.966504 C 59.862349 364.043853 57.767258 361.068825 55.745496 358.046656 C 53.728971 355.024488 51.780537 351.955181 49.910669 348.833496 C 48.040801 345.717049 46.249498 342.553462 44.536762 339.342736 C 42.824025 336.137247 41.189855 332.889857 39.63425 329.600565 C 38.078645 326.316511 36.606844 322.990554 35.213609 319.633172 C 33.820374 316.270552 32.51618 312.881743 31.290552 309.45627 C 30.064924 306.030797 28.9231 302.579135 27.870317 299.101285 C 26.812296 295.623435 25.843317 292.119396 24.958141 288.589168 C 24.072965 285.064178 23.276831 281.518238 22.569738 277.951346 C 21.862645 274.384454 21.239355 270.80185 20.705107 267.203532 C 20.170859 263.605214 19.725652 259.99642 19.369487 256.377152 C 19.013322 252.757883 18.746197 249.133376 18.568115 245.503632 C 18.390032 241.86865 18.300991 238.238905 18.300991 234.598686 C 18.300991 230.963704 18.390032 227.328722 18.568115 223.698977 C 18.746197 220.063995 19.013322 216.439489 19.369487 212.82022 C 19.725652 209.200951 20.170859 205.592157 20.705107 201.999077 C 21.239355 198.400759 21.862645 194.818154 22.569738 191.251263 C 23.276831 187.684371 24.072965 184.138431 24.958141 180.608203 C 25.843317 177.083213 26.812296 173.579174 27.870317 170.101324 C 28.9231 166.618236 30.064924 163.166575 31.290552 159.741102 C 32.51618 156.320866 33.820374 152.92682 35.213609 149.569437 C 36.606844 146.206817 38.078645 142.886098 39.63425 139.596806 C 41.189855 136.307514 42.824025 133.060124 44.536762 129.854635 C 46.249498 126.649147 48.040801 123.48556 49.910669 120.363875 C 51.780537 117.247428 53.728971 114.178121 55.745496 111.150715 C 57.767258 108.128547 59.862349 105.158756 62.02553 102.236105 C 64.193948 99.313453 66.430458 96.448417 68.735057 93.635758 C 71.044894 90.828337 73.417584 88.073293 75.858365 85.381101 C 78.304383 82.683672 80.808016 80.054334 83.37974 77.48261 C 85.951463 74.910887 88.58604 72.402016 91.278231 69.961235 C 93.97566 67.520455 96.725466 65.142527 99.538125 62.837927 C 102.350784 60.52809 105.215821 58.291581 108.133234 56.1284 C 111.055886 53.959981 114.030914 51.870129 117.053082 49.848366 C 120.07525 47.826604 123.149796 45.883408 126.266243 44.013539 C 129.387928 42.143671 132.546277 40.352369 135.757003 38.639632 C 138.962491 36.921658 142.209882 35.287487 145.499174 33.731883 C 148.783228 32.176278 152.109184 30.704477 155.466567 29.316479 C 158.829187 27.923244 162.217996 26.613812 165.643469 25.388185 C 169.068942 24.162557 172.520604 23.02597 175.998454 21.967949 C 179.476304 20.909929 182.980343 19.940949 186.51057 19.061011 C 190.03556 18.175835 193.586739 17.379701 197.148393 16.66737 C 200.715284 15.960277 204.297889 15.336988 207.896207 14.80274 C 211.494525 14.273729 215.103318 13.828523 218.722587 13.472357 C 222.341856 13.110954 225.966363 12.84383 229.596107 12.665747 C 233.231089 12.487665 236.866071 12.398623 240.501053 12.398623 C 244.136035 12.398623 247.771017 12.487665 251.400761 12.665747 C 255.035743 12.84383 258.66025 13.110954 262.279519 13.472357 C 265.898788 13.828523 269.507581 14.273729 273.105899 14.80274 C 276.698979 15.336988 280.281584 15.960277 283.848476 16.66737 C 287.415367 17.379701 290.961308 18.175835 294.491536 19.061011 C 298.016525 19.940949 301.520564 20.909929 305.003652 21.967949 C 308.481502 23.02597 311.933164 24.162557 315.358637 25.388185 C 318.778872 26.613812 322.172919 27.923244 325.530302 29.316479 C 328.892922 30.704477 332.21364 32.176278 335.502932 33.731883 C 338.792225 35.287487 342.039615 36.921658 345.245103 38.639632 C 348.450592 40.352369 351.614178 42.143671 354.735863 44.013539 C 357.85231 45.883408 360.921618 47.826604 363.949024 49.848366 C 366.971192 51.870129 369.940983 53.959981 372.863634 56.1284 C 375.786285 58.291581 378.651322 60.52809 381.463981 62.837927 C 384.271402 65.142527 387.026446 67.520455 389.718637 69.961235 C 392.416066 72.402016 395.045405 74.910887 397.617128 77.48261 C 400.188852 80.054334 402.697723 82.683672 405.138503 85.381101 C 407.579284 88.073293 409.957212 90.828337 412.261811 93.635758 C 414.571648 96.448417 416.808158 99.313453 418.971339 102.236105 C 421.139757 105.158756 423.22961 108.128547 425.251372 111.150715 C 427.273135 114.178121 429.216331 117.247428 431.086199 120.363875 C 432.956068 123.48556 434.74737 126.649147 436.465344 129.854635 C 438.178081 133.060124 439.812251 136.307514 441.367856 139.596806 C 442.923461 142.886098 444.395262 146.206817 445.788497 149.569437 C 447.176495 152.92682 448.485926 156.320866 449.711554 159.741102 C 450.937182 163.166575 452.079006 166.618236 453.131789 170.101324 C 454.18981 173.579174 455.158789 177.083213 456.038727 180.608203 C 456.923903 184.138431 457.720038 187.684371 458.432368 191.251263 C 459.139461 194.818154 459.762751 198.400759 460.296999 201.999077 C 460.826009 205.592157 461.271216 209.200951 461.632619 212.82022 C 461.988785 216.439489 462.255909 220.063995 462.433991 223.698977 C 462.612074 227.328722 462.701115 230.963704 462.701115 234.598686 Z M 462.701115 234.598686 " transform="matrix(0.745791,0,0,0.745791,8.261439,12.62431)"/></g><g clip-rule="nonzero" clip-path="url(#5d25fb094a)"><path style=" stroke:none;fill-rule:nonzero;fill:#ffffff;fill-opacity:1;" d="M 226.554688 70.796875 C 213.355469 73.183594 208.804688 75.421875 201.199219 79.746094 C 193.070312 84.371094 187.402344 89.21875 183.523438 93.167969 C 170.84375 106.296875 168.011719 118.527344 165.625 128 C 162.042969 141.945312 162.417969 155.070312 162.417969 155.070312 L 162.417969 165.289062 L 135.792969 165.289062 L 135.792969 211.601562 L 162.417969 211.601562 L 162.417969 351.4375 C 170.621094 352.707031 179.046875 353.375 187.625 353.375 C 200.300781 353.375 212.683594 351.960938 224.539062 349.273438 L 224.539062 211.601562 L 265.039062 211.601562 L 265.039062 165.289062 L 224.539062 165.289062 L 224.539062 155.441406 C 224.539062 155.441406 224.539062 153.652344 224.539062 153.429688 C 224.539062 153.207031 224.539062 152.90625 224.539062 152.683594 C 224.539062 150.671875 224.617188 147.6875 225.0625 145.078125 C 226.179688 138.289062 228.492188 132.996094 232.371094 128.296875 C 236.847656 122.925781 242.066406 120.613281 247.882812 119.71875 C 262.277344 117.484375 274.285156 122.480469 274.285156 122.480469 L 276.523438 73.777344 C 276.523438 73.777344 267.5 70.871094 252.582031 69.828125 C 242.066406 69.082031 232.746094 69.675781 226.554688 70.796875 Z M 226.554688 70.796875 "/></g><g clip-rule="nonzero" clip-path="url(#c25c4e5b3e)"><path style="fill:none;stroke-width:1;stroke-linecap:butt;stroke-linejoin:miter;stroke:#ffffff;stroke-opacity:1;stroke-miterlimit:10;" d="M 292.700233 78.001145 C 275.001956 81.201396 268.900005 84.202613 258.702152 90.000776 C 247.802443 96.202244 240.202503 102.702262 235.00144 107.997604 C 217.999781 125.601602 214.202429 142.000923 211.002179 154.702409 C 206.199184 173.401092 206.702005 190.999852 206.702005 190.999852 L 206.702005 204.701744 L 171.001663 204.701744 L 171.001663 266.800227 L 206.702005 266.800227 L 206.702005 454.300352 C 217.70123 456.002613 228.999006 456.898265 240.501053 456.898265 C 257.497475 456.898265 274.101067 455.002208 289.997566 451.398652 L 289.997566 266.800227 L 344.302313 266.800227 L 344.302313 204.701744 L 289.997566 204.701744 L 289.997566 191.497436 C 289.997566 191.497436 289.997566 189.098557 289.997566 188.800007 C 289.997566 188.501457 289.997566 188.098152 289.997566 187.799601 C 289.997566 185.102172 290.102321 181.100549 290.699422 177.601748 C 292.197411 168.49858 295.298145 161.401461 300.499208 155.100476 C 306.501642 147.898602 313.499244 144.797868 321.298219 143.598429 C 340.59924 140.60245 356.700011 147.301502 356.700011 147.301502 L 359.701228 81.99753 C 359.701228 81.99753 347.60208 78.100662 327.599203 76.702189 C 313.499244 75.701783 301.002029 76.497918 292.700233 78.001145 Z M 292.700233 78.001145 " transform="matrix(0.745791,0,0,0.745791,8.261439,12.62431)"/></g></g></svg>