<svg xmlns="http://www.w3.org/2000/svg" xmlns:xlink="http://www.w3.org/1999/xlink" width="500" zoomAndPan="magnify" viewBox="0 0 375 374.999991" height="500" preserveAspectRatio="xMidYMid meet" version="1.2"><defs><clipPath id="381e98c042"><path d="M 112.5 112.5 L 262.5 112.5 L 262.5 262.5 L 112.5 262.5 Z M 112.5 112.5 "/></clipPath><clipPath id="5448f24c82"><path d="M 30.796875 30.796875 L 344.296875 30.796875 L 344.296875 344.296875 L 30.796875 344.296875 Z M 30.796875 30.796875 "/></clipPath><clipPath id="654eb3fda3"><path d="M 344.296875 187.546875 C 344.296875 190.109375 344.230469 192.675781 344.105469 195.238281 C 343.980469 197.800781 343.792969 200.355469 343.539062 202.910156 C 343.289062 205.460938 342.976562 208.007812 342.597656 210.546875 C 342.222656 213.082031 341.785156 215.609375 341.285156 218.125 C 340.78125 220.640625 340.222656 223.144531 339.597656 225.632812 C 338.972656 228.121094 338.289062 230.59375 337.546875 233.046875 C 336.800781 235.503906 335.996094 237.9375 335.132812 240.351562 C 334.269531 242.769531 333.34375 245.160156 332.363281 247.53125 C 331.382812 249.902344 330.34375 252.246094 329.246094 254.566406 C 328.148438 256.882812 326.996094 259.175781 325.785156 261.4375 C 324.578125 263.699219 323.3125 265.929688 321.996094 268.128906 C 320.675781 270.332031 319.304688 272.496094 317.878906 274.628906 C 316.453125 276.765625 314.976562 278.859375 313.449219 280.921875 C 311.917969 282.980469 310.34375 285.003906 308.714844 286.988281 C 307.085938 288.96875 305.410156 290.910156 303.6875 292.8125 C 301.964844 294.710938 300.199219 296.570312 298.382812 298.382812 C 296.570312 300.199219 294.710938 301.964844 292.8125 303.6875 C 290.910156 305.410156 288.96875 307.085938 286.988281 308.714844 C 285.003906 310.34375 282.980469 311.917969 280.921875 313.449219 C 278.859375 314.976562 276.765625 316.453125 274.628906 317.878906 C 272.496094 319.304688 270.332031 320.675781 268.128906 321.996094 C 265.929688 323.3125 263.699219 324.578125 261.4375 325.785156 C 259.175781 326.996094 256.882812 328.148438 254.566406 329.246094 C 252.246094 330.34375 249.902344 331.382812 247.53125 332.363281 C 245.160156 333.34375 242.769531 334.269531 240.351562 335.132812 C 237.9375 335.996094 235.503906 336.800781 233.046875 337.546875 C 230.59375 338.289062 228.121094 338.972656 225.632812 339.597656 C 223.144531 340.222656 220.640625 340.78125 218.125 341.285156 C 215.609375 341.785156 213.082031 342.222656 210.546875 342.597656 C 208.007812 342.976562 205.460938 343.289062 202.910156 343.539062 C 200.355469 343.792969 197.800781 343.980469 195.238281 344.105469 C 192.675781 344.230469 190.109375 344.296875 187.546875 344.296875 C 184.980469 344.296875 182.417969 344.230469 179.855469 344.105469 C 177.292969 343.980469 174.734375 343.792969 172.179688 343.539062 C 169.628906 343.289062 167.082031 342.976562 164.546875 342.597656 C 162.007812 342.222656 159.480469 341.785156 156.964844 341.285156 C 154.449219 340.78125 151.945312 340.222656 149.457031 339.597656 C 146.96875 338.972656 144.496094 338.289062 142.042969 337.546875 C 139.589844 336.800781 137.152344 335.996094 134.738281 335.132812 C 132.324219 334.269531 129.929688 333.34375 127.558594 332.363281 C 125.191406 331.382812 122.84375 330.34375 120.527344 329.246094 C 118.207031 328.148438 115.917969 326.996094 113.652344 325.785156 C 111.390625 324.578125 109.160156 323.3125 106.960938 321.996094 C 104.757812 320.675781 102.59375 319.304688 100.460938 317.878906 C 98.328125 316.453125 96.230469 314.976562 94.167969 313.449219 C 92.109375 311.917969 90.085938 310.34375 88.105469 308.714844 C 86.121094 307.085938 84.179688 305.410156 82.277344 303.6875 C 80.378906 301.964844 78.519531 300.199219 76.707031 298.382812 C 74.890625 296.570312 73.125 294.710938 71.402344 292.8125 C 69.679688 290.910156 68.003906 288.96875 66.375 286.988281 C 64.75 285.003906 63.171875 282.980469 61.640625 280.921875 C 60.113281 278.859375 58.636719 276.765625 57.210938 274.628906 C 55.789062 272.496094 54.414062 270.332031 53.097656 268.128906 C 51.777344 265.929688 50.511719 263.699219 49.304688 261.4375 C 48.09375 259.175781 46.941406 256.882812 45.84375 254.566406 C 44.75 252.246094 43.707031 249.902344 42.726562 247.53125 C 41.746094 245.160156 40.824219 242.769531 39.957031 240.351562 C 39.09375 237.9375 38.289062 235.503906 37.542969 233.046875 C 36.800781 230.59375 36.117188 228.121094 35.492188 225.632812 C 34.871094 223.144531 34.308594 220.640625 33.808594 218.125 C 33.308594 215.609375 32.867188 213.082031 32.492188 210.546875 C 32.117188 208.007812 31.800781 205.460938 31.550781 202.910156 C 31.296875 200.355469 31.109375 197.800781 30.984375 195.238281 C 30.859375 192.675781 30.796875 190.109375 30.796875 187.546875 C 30.796875 184.980469 30.859375 182.417969 30.984375 179.855469 C 31.109375 177.292969 31.296875 174.734375 31.550781 172.179688 C 31.800781 169.628906 32.117188 167.082031 32.492188 164.546875 C 32.867188 162.007812 33.308594 159.480469 33.808594 156.964844 C 34.308594 154.449219 34.871094 151.945312 35.492188 149.457031 C 36.117188 146.96875 36.800781 144.496094 37.542969 142.042969 C 38.289062 139.589844 39.09375 137.152344 39.957031 134.738281 C 40.824219 132.324219 41.746094 129.929688 42.726562 127.558594 C 43.707031 125.191406 44.75 122.84375 45.84375 120.527344 C 46.941406 118.207031 48.09375 115.917969 49.304688 113.652344 C 50.511719 111.390625 51.777344 109.160156 53.097656 106.960938 C 54.414062 104.757812 55.789062 102.59375 57.210938 100.460938 C 58.636719 98.328125 60.113281 96.230469 61.640625 94.167969 C 63.171875 92.109375 64.75 90.085938 66.375 88.105469 C 68.003906 86.121094 69.679688 84.179688 71.402344 82.277344 C 73.125 80.378906 74.890625 78.519531 76.707031 76.707031 C 78.519531 74.890625 80.378906 73.125 82.277344 71.402344 C 84.179688 69.679688 86.121094 68.003906 88.105469 66.375 C 90.085938 64.75 92.109375 63.171875 94.167969 61.640625 C 96.230469 60.113281 98.328125 58.636719 100.460938 57.210938 C 102.59375 55.789062 104.757812 54.414062 106.960938 53.097656 C 109.160156 51.777344 111.390625 50.511719 113.652344 49.304688 C 115.917969 48.09375 118.207031 46.941406 120.527344 45.84375 C 122.84375 44.75 125.191406 43.707031 127.558594 42.726562 C 129.929688 41.746094 132.324219 40.824219 134.738281 39.957031 C 137.152344 39.09375 139.589844 38.289062 142.042969 37.542969 C 144.496094 36.800781 146.96875 36.117188 149.457031 35.492188 C 151.945312 34.871094 154.449219 34.308594 156.964844 33.808594 C 159.480469 33.308594 162.007812 32.867188 164.546875 32.492188 C 167.082031 32.117188 169.628906 31.800781 172.179688 31.550781 C 174.734375 31.296875 177.292969 31.109375 179.855469 30.984375 C 182.417969 30.859375 184.980469 30.796875 187.546875 30.796875 C 190.109375 30.796875 192.675781 30.859375 195.238281 30.984375 C 197.800781 31.109375 200.355469 31.296875 202.910156 31.550781 C 205.460938 31.800781 208.007812 32.117188 210.546875 32.492188 C 213.082031 32.867188 215.609375 33.308594 218.125 33.808594 C 220.640625 34.308594 223.144531 34.871094 225.632812 35.492188 C 228.121094 36.117188 230.59375 36.800781 233.046875 37.542969 C 235.503906 38.289062 237.9375 39.09375 240.351562 39.957031 C 242.769531 40.824219 245.160156 41.746094 247.53125 42.726562 C 249.902344 43.707031 252.246094 44.75 254.566406 45.84375 C 256.882812 46.941406 259.175781 48.09375 261.4375 49.304688 C 263.699219 50.511719 265.929688 51.777344 268.128906 53.097656 C 270.332031 54.414062 272.496094 55.789062 274.628906 57.210938 C 276.765625 58.636719 278.859375 60.113281 280.921875 61.640625 C 282.980469 63.171875 285.003906 64.75 286.988281 66.375 C 288.96875 68.003906 290.910156 69.679688 292.8125 71.402344 C 294.710938 73.125 296.570312 74.890625 298.382812 76.707031 C 300.199219 78.519531 301.964844 80.378906 303.6875 82.277344 C 305.410156 84.179688 307.085938 86.121094 308.714844 88.105469 C 310.34375 90.085938 311.917969 92.109375 313.449219 94.167969 C 314.976562 96.230469 316.453125 98.328125 317.878906 100.460938 C 319.304688 102.59375 320.675781 104.757812 321.996094 106.960938 C 323.3125 109.160156 324.578125 111.390625 325.785156 113.652344 C 326.996094 115.917969 328.148438 118.207031 329.246094 120.527344 C 330.34375 122.84375 331.382812 125.191406 332.363281 127.558594 C 333.34375 129.929688 334.269531 132.324219 335.132812 134.738281 C 335.996094 137.152344 336.800781 139.589844 337.546875 142.042969 C 338.289062 144.496094 338.972656 146.96875 339.597656 149.457031 C 340.222656 151.945312 340.78125 154.449219 341.285156 156.964844 C 341.785156 159.480469 342.222656 162.007812 342.597656 164.546875 C 342.976562 167.082031 343.289062 169.628906 343.539062 172.179688 C 343.792969 174.734375 343.980469 177.292969 344.105469 179.855469 C 344.230469 182.417969 344.296875 184.980469 344.296875 187.546875 Z M 344.296875 187.546875 "/></clipPath><linearGradient x1="0.0499011" gradientTransform="matrix(1.021172,0,0,1.021172,30.795283,30.795289)" y1="307.049892" x2="307.050609" gradientUnits="userSpaceOnUse" y2="0.0505966" id="ba48deaccf"><stop style="stop-color:#fec053;stop-opacity:1;" offset="0"/><stop style="stop-color:#fec053;stop-opacity:1;" offset="0.125"/><stop style="stop-color:#fec053;stop-opacity:1;" offset="0.140625"/><stop style="stop-color:#febf53;stop-opacity:1;" offset="0.144531"/><stop style="stop-color:#febf53;stop-opacity:1;" offset="0.148437"/><stop style="stop-color:#febd53;stop-opacity:1;" offset="0.152344"/><stop style="stop-color:#febb52;stop-opacity:1;" offset="0.15625"/><stop style="stop-color:#feb952;stop-opacity:1;" offset="0.160156"/><stop style="stop-color:#fdb752;stop-opacity:1;" offset="0.164062"/><stop style="stop-color:#fdb652;stop-opacity:1;" offset="0.167969"/><stop style="stop-color:#fdb451;stop-opacity:1;" offset="0.171875"/><stop style="stop-color:#fdb251;stop-opacity:1;" offset="0.175781"/><stop style="stop-color:#fdb051;stop-opacity:1;" offset="0.179687"/><stop style="stop-color:#fdae51;stop-opacity:1;" offset="0.183594"/><stop style="stop-color:#fdac50;stop-opacity:1;" offset="0.1875"/><stop style="stop-color:#fcaa50;stop-opacity:1;" offset="0.191406"/><stop style="stop-color:#fca950;stop-opacity:1;" offset="0.195312"/><stop style="stop-color:#fca750;stop-opacity:1;" offset="0.199219"/><stop style="stop-color:#fca54f;stop-opacity:1;" offset="0.203125"/><stop style="stop-color:#fca34f;stop-opacity:1;" offset="0.207031"/><stop style="stop-color:#fca14f;stop-opacity:1;" offset="0.210938"/><stop style="stop-color:#fc9f4f;stop-opacity:1;" offset="0.214844"/><stop style="stop-color:#fb9d4e;stop-opacity:1;" offset="0.21875"/><stop style="stop-color:#fb9b4e;stop-opacity:1;" offset="0.222656"/><stop style="stop-color:#fb9a4e;stop-opacity:1;" offset="0.226562"/><stop style="stop-color:#fb984e;stop-opacity:1;" offset="0.230469"/><stop style="stop-color:#fb964d;stop-opacity:1;" offset="0.234375"/><stop style="stop-color:#fb944d;stop-opacity:1;" offset="0.238281"/><stop style="stop-color:#fb924d;stop-opacity:1;" offset="0.242187"/><stop style="stop-color:#fa904d;stop-opacity:1;" offset="0.246094"/><stop style="stop-color:#fa8e4c;stop-opacity:1;" offset="0.25"/><stop style="stop-color:#fa8c4c;stop-opacity:1;" offset="0.253906"/><stop style="stop-color:#fa8b4c;stop-opacity:1;" offset="0.257812"/><stop style="stop-color:#fa894c;stop-opacity:1;" offset="0.261719"/><stop style="stop-color:#fa874b;stop-opacity:1;" offset="0.265625"/><stop style="stop-color:#fa854b;stop-opacity:1;" offset="0.269531"/><stop style="stop-color:#f9834b;stop-opacity:1;" offset="0.273437"/><stop style="stop-color:#f9814b;stop-opacity:1;" offset="0.277344"/><stop style="stop-color:#f97f4b;stop-opacity:1;" offset="0.28125"/><stop style="stop-color:#f97d4a;stop-opacity:1;" offset="0.285156"/><stop style="stop-color:#f97c4a;stop-opacity:1;" offset="0.289062"/><stop style="stop-color:#f97a4a;stop-opacity:1;" offset="0.292969"/><stop style="stop-color:#f9784a;stop-opacity:1;" offset="0.296875"/><stop style="stop-color:#f87649;stop-opacity:1;" offset="0.300781"/><stop style="stop-color:#f87449;stop-opacity:1;" offset="0.304688"/><stop style="stop-color:#f87249;stop-opacity:1;" offset="0.308594"/><stop style="stop-color:#f87049;stop-opacity:1;" offset="0.3125"/><stop style="stop-color:#f86e48;stop-opacity:1;" offset="0.316406"/><stop style="stop-color:#f86d48;stop-opacity:1;" offset="0.320312"/><stop style="stop-color:#f86b48;stop-opacity:1;" offset="0.324219"/><stop style="stop-color:#f76948;stop-opacity:1;" offset="0.328125"/><stop style="stop-color:#f76747;stop-opacity:1;" offset="0.332031"/><stop style="stop-color:#f76547;stop-opacity:1;" offset="0.335938"/><stop style="stop-color:#f76347;stop-opacity:1;" offset="0.339844"/><stop style="stop-color:#f76147;stop-opacity:1;" offset="0.34375"/><stop style="stop-color:#f75f46;stop-opacity:1;" offset="0.347656"/><stop style="stop-color:#f75e46;stop-opacity:1;" offset="0.351563"/><stop style="stop-color:#f65c46;stop-opacity:1;" offset="0.355469"/><stop style="stop-color:#f65a46;stop-opacity:1;" offset="0.359375"/><stop style="stop-color:#f65845;stop-opacity:1;" offset="0.363281"/><stop style="stop-color:#f65645;stop-opacity:1;" offset="0.367188"/><stop style="stop-color:#f65445;stop-opacity:1;" offset="0.371094"/><stop style="stop-color:#f65245;stop-opacity:1;" offset="0.375"/><stop style="stop-color:#f65044;stop-opacity:1;" offset="0.378906"/><stop style="stop-color:#f54f44;stop-opacity:1;" offset="0.382812"/><stop style="stop-color:#f54d44;stop-opacity:1;" offset="0.386719"/><stop style="stop-color:#f54b44;stop-opacity:1;" offset="0.390625"/><stop style="stop-color:#f54943;stop-opacity:1;" offset="0.394531"/><stop style="stop-color:#f54743;stop-opacity:1;" offset="0.398437"/><stop style="stop-color:#f54543;stop-opacity:1;" offset="0.402344"/><stop style="stop-color:#f54343;stop-opacity:1;" offset="0.40625"/><stop style="stop-color:#f54142;stop-opacity:1;" offset="0.410156"/><stop style="stop-color:#f44042;stop-opacity:1;" offset="0.414062"/><stop style="stop-color:#f43e42;stop-opacity:1;" offset="0.417969"/><stop style="stop-color:#f43c42;stop-opacity:1;" offset="0.421875"/><stop style="stop-color:#f43a41;stop-opacity:1;" offset="0.425781"/><stop style="stop-color:#f43841;stop-opacity:1;" offset="0.429688"/><stop style="stop-color:#f43641;stop-opacity:1;" offset="0.433594"/><stop style="stop-color:#f43441;stop-opacity:1;" offset="0.4375"/><stop style="stop-color:#f33240;stop-opacity:1;" offset="0.441406"/><stop style="stop-color:#f33140;stop-opacity:1;" offset="0.445312"/><stop style="stop-color:#f32f40;stop-opacity:1;" offset="0.449219"/><stop style="stop-color:#f32d40;stop-opacity:1;" offset="0.453125"/><stop style="stop-color:#f32b3f;stop-opacity:1;" offset="0.457031"/><stop style="stop-color:#f3293f;stop-opacity:1;" offset="0.460938"/><stop style="stop-color:#f3273f;stop-opacity:1;" offset="0.464844"/><stop style="stop-color:#f2253f;stop-opacity:1;" offset="0.46875"/><stop style="stop-color:#f2233e;stop-opacity:1;" offset="0.472656"/><stop style="stop-color:#f2223e;stop-opacity:1;" offset="0.476563"/><stop style="stop-color:#f1213f;stop-opacity:1;" offset="0.480469"/><stop style="stop-color:#f02041;stop-opacity:1;" offset="0.484375"/><stop style="stop-color:#ef2043;stop-opacity:1;" offset="0.488281"/><stop style="stop-color:#ee2046;stop-opacity:1;" offset="0.492188"/><stop style="stop-color:#ec2048;stop-opacity:1;" offset="0.496094"/><stop style="stop-color:#eb204a;stop-opacity:1;" offset="0.5"/><stop style="stop-color:#ea204d;stop-opacity:1;" offset="0.503906"/><stop style="stop-color:#e8204f;stop-opacity:1;" offset="0.507812"/><stop style="stop-color:#e72052;stop-opacity:1;" offset="0.511719"/><stop style="stop-color:#e62054;stop-opacity:1;" offset="0.515625"/><stop style="stop-color:#e42057;stop-opacity:1;" offset="0.519531"/><stop style="stop-color:#e32059;stop-opacity:1;" offset="0.523438"/><stop style="stop-color:#e2205b;stop-opacity:1;" offset="0.527344"/><stop style="stop-color:#e0205e;stop-opacity:1;" offset="0.53125"/><stop style="stop-color:#df2060;stop-opacity:1;" offset="0.535156"/><stop style="stop-color:#de2063;stop-opacity:1;" offset="0.539062"/><stop style="stop-color:#dc2065;stop-opacity:1;" offset="0.542969"/><stop style="stop-color:#db2068;stop-opacity:1;" offset="0.546875"/><stop style="stop-color:#d9206a;stop-opacity:1;" offset="0.550781"/><stop style="stop-color:#d8206d;stop-opacity:1;" offset="0.554688"/><stop style="stop-color:#d7206f;stop-opacity:1;" offset="0.558594"/><stop style="stop-color:#d52071;stop-opacity:1;" offset="0.5625"/><stop style="stop-color:#d41f74;stop-opacity:1;" offset="0.566406"/><stop style="stop-color:#d31f76;stop-opacity:1;" offset="0.570312"/><stop style="stop-color:#d11f79;stop-opacity:1;" offset="0.574219"/><stop style="stop-color:#d01f7b;stop-opacity:1;" offset="0.578125"/><stop style="stop-color:#cf1f7e;stop-opacity:1;" offset="0.582031"/><stop style="stop-color:#cd1f80;stop-opacity:1;" offset="0.585938"/><stop style="stop-color:#cc1f82;stop-opacity:1;" offset="0.589844"/><stop style="stop-color:#cb1f85;stop-opacity:1;" offset="0.59375"/><stop style="stop-color:#c91f87;stop-opacity:1;" offset="0.597656"/><stop style="stop-color:#c81f8a;stop-opacity:1;" offset="0.601562"/><stop style="stop-color:#c71f8c;stop-opacity:1;" offset="0.605469"/><stop style="stop-color:#c51f8f;stop-opacity:1;" offset="0.609375"/><stop style="stop-color:#c41f91;stop-opacity:1;" offset="0.613281"/><stop style="stop-color:#c21f93;stop-opacity:1;" offset="0.617188"/><stop style="stop-color:#c11f96;stop-opacity:1;" offset="0.621094"/><stop style="stop-color:#c01f98;stop-opacity:1;" offset="0.625"/><stop style="stop-color:#be1f9b;stop-opacity:1;" offset="0.628906"/><stop style="stop-color:#bd1f9d;stop-opacity:1;" offset="0.632812"/><stop style="stop-color:#bc1fa0;stop-opacity:1;" offset="0.636719"/><stop style="stop-color:#ba1fa2;stop-opacity:1;" offset="0.640625"/><stop style="stop-color:#b91fa4;stop-opacity:1;" offset="0.644531"/><stop style="stop-color:#b81fa7;stop-opacity:1;" offset="0.648438"/><stop style="stop-color:#b620a8;stop-opacity:1;" offset="0.652344"/><stop style="stop-color:#b420a9;stop-opacity:1;" offset="0.65625"/><stop style="stop-color:#b221aa;stop-opacity:1;" offset="0.660156"/><stop style="stop-color:#b022ab;stop-opacity:1;" offset="0.664062"/><stop style="stop-color:#ae23ac;stop-opacity:1;" offset="0.667969"/><stop style="stop-color:#ac24ad;stop-opacity:1;" offset="0.671875"/><stop style="stop-color:#aa25ae;stop-opacity:1;" offset="0.675781"/><stop style="stop-color:#a826af;stop-opacity:1;" offset="0.679688"/><stop style="stop-color:#a727b0;stop-opacity:1;" offset="0.683594"/><stop style="stop-color:#a528b0;stop-opacity:1;" offset="0.6875"/><stop style="stop-color:#a329b1;stop-opacity:1;" offset="0.691406"/><stop style="stop-color:#a12ab2;stop-opacity:1;" offset="0.695312"/><stop style="stop-color:#9f2bb3;stop-opacity:1;" offset="0.699219"/><stop style="stop-color:#9d2cb4;stop-opacity:1;" offset="0.703125"/><stop style="stop-color:#9b2db5;stop-opacity:1;" offset="0.707031"/><stop style="stop-color:#992eb6;stop-opacity:1;" offset="0.710938"/><stop style="stop-color:#972fb7;stop-opacity:1;" offset="0.714844"/><stop style="stop-color:#9530b8;stop-opacity:1;" offset="0.71875"/><stop style="stop-color:#9331b8;stop-opacity:1;" offset="0.722656"/><stop style="stop-color:#9132b9;stop-opacity:1;" offset="0.726562"/><stop style="stop-color:#8f33ba;stop-opacity:1;" offset="0.730469"/><stop style="stop-color:#8e34bb;stop-opacity:1;" offset="0.734375"/><stop style="stop-color:#8c35bc;stop-opacity:1;" offset="0.738281"/><stop style="stop-color:#8a36bd;stop-opacity:1;" offset="0.742188"/><stop style="stop-color:#8837be;stop-opacity:1;" offset="0.746094"/><stop style="stop-color:#8638bf;stop-opacity:1;" offset="0.75"/><stop style="stop-color:#8439bf;stop-opacity:1;" offset="0.753906"/><stop style="stop-color:#823ac0;stop-opacity:1;" offset="0.757812"/><stop style="stop-color:#803ac1;stop-opacity:1;" offset="0.761719"/><stop style="stop-color:#7e3bc2;stop-opacity:1;" offset="0.765625"/><stop style="stop-color:#7c3cc3;stop-opacity:1;" offset="0.769531"/><stop style="stop-color:#7a3dc4;stop-opacity:1;" offset="0.773438"/><stop style="stop-color:#783ec5;stop-opacity:1;" offset="0.777344"/><stop style="stop-color:#763fc6;stop-opacity:1;" offset="0.78125"/><stop style="stop-color:#7440c7;stop-opacity:1;" offset="0.785156"/><stop style="stop-color:#7341c7;stop-opacity:1;" offset="0.789063"/><stop style="stop-color:#7142c8;stop-opacity:1;" offset="0.792969"/><stop style="stop-color:#6f43c9;stop-opacity:1;" offset="0.796875"/><stop style="stop-color:#6d44ca;stop-opacity:1;" offset="0.800781"/><stop style="stop-color:#6b45cb;stop-opacity:1;" offset="0.804688"/><stop style="stop-color:#6946cc;stop-opacity:1;" offset="0.808594"/><stop style="stop-color:#6747cd;stop-opacity:1;" offset="0.8125"/><stop style="stop-color:#6548ce;stop-opacity:1;" offset="0.816406"/><stop style="stop-color:#6349cf;stop-opacity:1;" offset="0.820312"/><stop style="stop-color:#614acf;stop-opacity:1;" offset="0.824219"/><stop style="stop-color:#5f4bd0;stop-opacity:1;" offset="0.828125"/><stop style="stop-color:#5d4cd1;stop-opacity:1;" offset="0.832031"/><stop style="stop-color:#5b4dd2;stop-opacity:1;" offset="0.835938"/><stop style="stop-color:#5a4ed3;stop-opacity:1;" offset="0.839844"/><stop style="stop-color:#584fd4;stop-opacity:1;" offset="0.84375"/><stop style="stop-color:#5650d5;stop-opacity:1;" offset="0.847656"/><stop style="stop-color:#5451d6;stop-opacity:1;" offset="0.851562"/><stop style="stop-color:#5351d6;stop-opacity:1;" offset="0.859375"/><stop style="stop-color:#5351d6;stop-opacity:1;" offset="0.875"/><stop style="stop-color:#5351d6;stop-opacity:1;" offset="1"/></linearGradient></defs><g id="0147081b19"><path style=" stroke:none;fill-rule:nonzero;fill:#000000;fill-opacity:1;" d="M 187.5 147.683594 C 165.542969 147.683594 147.679688 165.539062 147.679688 187.496094 C 147.679688 209.453125 165.542969 227.316406 187.5 227.316406 C 209.457031 227.316406 227.320312 209.453125 227.320312 187.496094 C 227.320312 165.539062 209.457031 147.683594 187.5 147.683594 Z M 187.5 213.265625 C 173.292969 213.265625 161.738281 201.703125 161.738281 187.496094 C 161.738281 173.289062 173.292969 161.734375 187.5 161.734375 C 201.707031 161.734375 213.265625 173.289062 213.265625 187.496094 C 213.265625 201.703125 201.707031 213.265625 187.5 213.265625 Z M 187.5 213.265625 "/><path style=" stroke:none;fill-rule:nonzero;fill:#000000;fill-opacity:1;" d="M 228.816406 138.128906 C 224.375 138.128906 220.769531 141.734375 220.769531 146.179688 C 220.769531 150.628906 224.375 154.226562 228.816406 154.226562 C 233.261719 154.226562 236.863281 150.628906 236.863281 146.179688 C 236.863281 141.734375 233.261719 138.128906 228.816406 138.128906 Z M 228.816406 138.128906 "/><g clip-rule="nonzero" clip-path="url(#381e98c042)"><path style=" stroke:none;fill-rule:nonzero;fill:#000000;fill-opacity:1;" d="M 226.785156 112.503906 L 148.214844 112.503906 C 128.523438 112.503906 112.5 128.519531 112.5 148.210938 L 112.5 226.78125 C 112.5 246.472656 128.523438 262.496094 148.214844 262.496094 L 226.785156 262.496094 C 246.476562 262.496094 262.5 246.472656 262.5 226.78125 L 262.5 148.210938 C 262.5 128.519531 246.476562 112.503906 226.785156 112.503906 Z M 248.441406 226.78125 C 248.441406 238.722656 238.726562 248.445312 226.785156 248.445312 L 148.214844 248.445312 C 136.273438 248.445312 126.558594 238.722656 126.558594 226.78125 L 126.558594 148.210938 C 126.558594 136.269531 136.273438 126.554688 148.214844 126.554688 L 226.785156 126.554688 C 238.726562 126.554688 248.441406 136.269531 248.441406 148.210938 Z M 248.441406 226.78125 "/></g><g clip-rule="nonzero" clip-path="url(#5448f24c82)"><g clip-rule="nonzero" clip-path="url(#654eb3fda3)"><path style=" stroke:none;fill-rule:nonzero;fill:url(#ba48deaccf);" d="M 30.796875 30.796875 L 30.796875 344.296875 L 344.296875 344.296875 L 344.296875 30.796875 Z M 30.796875 30.796875 "/></g></g><path style=" stroke:none;fill-rule:nonzero;fill:#ffffff;fill-opacity:1;" d="M 229.601562 282.144531 L 146.035156 282.144531 C 117.0625 282.144531 93.492188 258.574219 93.492188 229.601562 L 93.492188 146.035156 C 93.492188 117.0625 117.0625 93.492188 146.035156 93.492188 L 229.601562 93.492188 C 258.574219 93.492188 282.144531 117.0625 282.144531 146.035156 L 282.144531 229.601562 C 282.144531 258.574219 258.574219 282.144531 229.601562 282.144531 Z M 146.035156 106.265625 C 124.105469 106.265625 106.265625 124.105469 106.265625 146.035156 L 106.265625 229.601562 C 106.265625 251.53125 124.105469 269.371094 146.035156 269.371094 L 229.601562 269.371094 C 251.53125 269.371094 269.371094 251.53125 269.371094 229.601562 L 269.371094 146.035156 C 269.371094 124.105469 251.53125 106.265625 229.601562 106.265625 Z M 146.035156 106.265625 "/><path style=" stroke:none;fill-rule:nonzero;fill:#ffffff;fill-opacity:1;" d="M 187.820312 234.546875 C 162.058594 234.546875 141.097656 213.585938 141.097656 187.820312 C 141.097656 162.058594 162.058594 141.097656 187.820312 141.097656 C 213.585938 141.097656 234.546875 162.058594 234.546875 187.820312 C 234.546875 213.585938 213.585938 234.546875 187.820312 234.546875 Z M 187.820312 153.867188 C 169.101562 153.867188 153.867188 169.097656 153.867188 187.820312 C 153.867188 206.542969 169.101562 221.773438 187.820312 221.773438 C 206.542969 221.773438 221.773438 206.542969 221.773438 187.820312 C 221.773438 169.097656 206.546875 153.867188 187.820312 153.867188 Z M 187.820312 153.867188 "/></g></svg>