<svg xmlns="http://www.w3.org/2000/svg" xmlns:xlink="http://www.w3.org/1999/xlink" width="500" zoomAndPan="magnify" viewBox="0 0 375 374.999991" height="500" preserveAspectRatio="xMidYMid meet" version="1.2"><defs><clipPath id="b96bc3363b"><path d="M 129.796875 196 L 138.796875 196 L 138.796875 205 L 129.796875 205 Z M 129.796875 196 "/></clipPath><clipPath id="d49e97e20a"><path d="M 19.828125 31.5 L 355.078125 31.5 L 355.078125 337.5 L 19.828125 337.5 Z M 19.828125 31.5 "/></clipPath></defs><g id="509dde0220"><path style=" stroke:none;fill-rule:nonzero;fill:#000000;fill-opacity:1;" d="M 134.296875 198.109375 C 132.980469 198.109375 131.910156 199.179688 131.910156 200.5 C 131.910156 201.816406 132.980469 202.886719 134.296875 202.886719 C 135.617188 202.886719 136.6875 201.816406 136.6875 200.5 C 136.6875 199.179688 135.617188 198.109375 134.296875 198.109375 Z M 134.296875 202.042969 C 133.445312 202.042969 132.753906 201.351562 132.753906 200.5 C 132.753906 199.644531 133.445312 198.953125 134.296875 198.953125 C 135.152344 198.953125 135.84375 199.644531 135.84375 200.5 C 135.84375 201.351562 135.152344 202.042969 134.296875 202.042969 Z M 134.296875 202.042969 "/><path style=" stroke:none;fill-rule:nonzero;fill:#000000;fill-opacity:1;" d="M 136.777344 197.535156 C 136.511719 197.535156 136.296875 197.753906 136.296875 198.019531 C 136.296875 198.285156 136.511719 198.503906 136.777344 198.503906 C 137.042969 198.503906 137.261719 198.285156 137.261719 198.019531 C 137.261719 197.753906 137.042969 197.535156 136.777344 197.535156 Z M 136.777344 197.535156 "/><g clip-rule="nonzero" clip-path="url(#b96bc3363b)"><path style=" stroke:none;fill-rule:nonzero;fill:#000000;fill-opacity:1;" d="M 136.65625 196 L 131.941406 196 C 130.761719 196 129.796875 196.960938 129.796875 198.140625 L 129.796875 202.855469 C 129.796875 204.035156 130.761719 205 131.941406 205 L 136.65625 205 C 137.835938 205 138.796875 204.035156 138.796875 202.855469 L 138.796875 198.140625 C 138.796875 196.960938 137.835938 196 136.65625 196 Z M 137.957031 202.855469 C 137.957031 203.570312 137.371094 204.15625 136.65625 204.15625 L 131.941406 204.15625 C 131.226562 204.15625 130.640625 203.570312 130.640625 202.855469 L 130.640625 198.140625 C 130.640625 197.425781 131.226562 196.84375 131.941406 196.84375 L 136.65625 196.84375 C 137.371094 196.84375 137.957031 197.425781 137.957031 198.140625 Z M 137.957031 202.855469 "/></g><g clip-rule="nonzero" clip-path="url(#d49e97e20a)"><path style=" stroke:none;fill-rule:nonzero;fill:#0cc0df;fill-opacity:1;" d="M 187.496094 31.496094 C 94.917969 31.496094 19.871094 91.535156 19.871094 165.597656 C 19.871094 203.996094 40.050781 238.621094 72.386719 263.070312 L 44.832031 337.503906 L 138.921875 293.96875 C 154.882812 297.808594 171.074219 299.71875 187.496094 299.695312 C 280.070312 299.695312 355.121094 239.65625 355.121094 165.597656 C 355.121094 91.535156 280.070312 31.496094 187.496094 31.496094 Z M 209.078125 220.074219 L 161.117188 176.15625 L 79.585938 214.671875 L 171.816406 111.164062 L 217.5625 155.402344 L 295.402344 121.324219 Z M 209.078125 220.074219 "/></g></g></svg>