<svg xmlns="http://www.w3.org/2000/svg" xmlns:xlink="http://www.w3.org/1999/xlink" width="500" zoomAndPan="magnify" viewBox="0 0 375 374.999991" height="500" preserveAspectRatio="xMidYMid meet" version="1.2"><defs><clipPath id="6e16b53c80"><path d="M 112.5 112.5 L 262.5 112.5 L 262.5 262.5 L 112.5 262.5 Z M 112.5 112.5 "/></clipPath><clipPath id="0a191be315"><path d="M 35.324219 35.324219 L 339.824219 35.324219 L 339.824219 339.824219 L 35.324219 339.824219 Z M 35.324219 35.324219 "/></clipPath></defs><g id="3ab800ce33"><path style=" stroke:none;fill-rule:nonzero;fill:#000000;fill-opacity:1;" d="M 187.5 147.683594 C 165.542969 147.683594 147.679688 165.539062 147.679688 187.496094 C 147.679688 209.453125 165.542969 227.316406 187.5 227.316406 C 209.457031 227.316406 227.320312 209.453125 227.320312 187.496094 C 227.320312 165.539062 209.457031 147.683594 187.5 147.683594 Z M 187.5 213.265625 C 173.292969 213.265625 161.738281 201.703125 161.738281 187.496094 C 161.738281 173.289062 173.292969 161.734375 187.5 161.734375 C 201.707031 161.734375 213.265625 173.289062 213.265625 187.496094 C 213.265625 201.703125 201.707031 213.265625 187.5 213.265625 Z M 187.5 213.265625 "/><path style=" stroke:none;fill-rule:nonzero;fill:#000000;fill-opacity:1;" d="M 228.816406 138.128906 C 224.375 138.128906 220.769531 141.734375 220.769531 146.179688 C 220.769531 150.628906 224.375 154.226562 228.816406 154.226562 C 233.261719 154.226562 236.863281 150.628906 236.863281 146.179688 C 236.863281 141.734375 233.261719 138.128906 228.816406 138.128906 Z M 228.816406 138.128906 "/><g clip-rule="nonzero" clip-path="url(#6e16b53c80)"><path style=" stroke:none;fill-rule:nonzero;fill:#000000;fill-opacity:1;" d="M 226.785156 112.503906 L 148.214844 112.503906 C 128.523438 112.503906 112.5 128.519531 112.5 148.210938 L 112.5 226.78125 C 112.5 246.472656 128.523438 262.496094 148.214844 262.496094 L 226.785156 262.496094 C 246.476562 262.496094 262.5 246.472656 262.5 226.78125 L 262.5 148.210938 C 262.5 128.519531 246.476562 112.503906 226.785156 112.503906 Z M 248.441406 226.78125 C 248.441406 238.722656 238.726562 248.445312 226.785156 248.445312 L 148.214844 248.445312 C 136.273438 248.445312 126.558594 238.722656 126.558594 226.78125 L 126.558594 148.210938 C 126.558594 136.269531 136.273438 126.554688 148.214844 126.554688 L 226.785156 126.554688 C 238.726562 126.554688 248.441406 136.269531 248.441406 148.210938 Z M 248.441406 226.78125 "/></g><g clip-rule="nonzero" clip-path="url(#0a191be315)"><path style=" stroke:none;fill-rule:nonzero;fill:#d2252d;fill-opacity:1;" d="M 339.824219 293.546875 C 339.824219 319.117188 319.089844 339.796875 293.570312 339.796875 L 81.574219 339.796875 C 56.003906 339.796875 35.324219 319.066406 35.324219 293.546875 L 35.324219 81.601562 C 35.324219 56.082031 56.003906 35.347656 81.574219 35.347656 L 293.519531 35.347656 C 319.089844 35.347656 339.769531 56.082031 339.769531 81.601562 Z M 339.824219 293.546875 "/></g><path style=" stroke:none;fill-rule:nonzero;fill:#ffffff;fill-opacity:1;" d="M 184.125 91.703125 C 129.195312 91.703125 84.730469 136.21875 84.730469 191.097656 C 84.730469 231.824219 109.25 266.761719 144.242188 282.179688 C 143.980469 275.234375 144.191406 266.921875 145.980469 259.398438 C 147.925781 251.292969 158.765625 205.199219 158.765625 205.199219 C 158.765625 205.199219 155.554688 198.886719 155.554688 189.46875 C 155.554688 174.734375 164.132812 163.738281 174.707031 163.738281 C 183.707031 163.738281 188.125 170.523438 188.125 178.628906 C 188.125 187.730469 182.285156 201.304688 179.339844 213.882812 C 176.8125 224.40625 184.601562 233.035156 195.019531 233.035156 C 213.855469 233.035156 226.535156 208.832031 226.535156 180.152344 C 226.535156 158.371094 211.855469 142.058594 185.179688 142.058594 C 155.027344 142.058594 136.246094 164.527344 136.246094 189.679688 C 136.246094 198.308594 138.824219 204.464844 142.820312 209.148438 C 144.664062 211.355469 144.925781 212.199219 144.242188 214.671875 C 143.820312 216.511719 142.664062 220.933594 142.242188 222.617188 C 141.558594 225.140625 139.558594 226.035156 137.296875 225.140625 C 123.40625 219.511719 116.933594 204.304688 116.933594 187.203125 C 116.933594 158.949219 140.71875 125.0625 188.019531 125.0625 C 225.957031 125.0625 251.003906 152.582031 251.003906 181.996094 C 251.003906 221.039062 229.324219 250.136719 197.332031 250.136719 C 186.601562 250.136719 176.496094 244.296875 173.023438 237.71875 C 173.023438 237.71875 167.234375 260.660156 166.027344 265.027344 C 163.921875 272.65625 159.765625 280.390625 156.027344 286.335938 C 164.972656 288.96875 174.445312 290.386719 184.230469 290.386719 C 239.164062 290.386719 283.628906 245.875 283.628906 190.992188 C 283.574219 136.269531 239.007812 91.703125 184.125 91.703125 Z M 184.125 91.703125 "/></g></svg>