<svg xmlns="http://www.w3.org/2000/svg" xmlns:xlink="http://www.w3.org/1999/xlink" width="500" zoomAndPan="magnify" viewBox="0 0 375 374.999991" height="500" preserveAspectRatio="xMidYMid meet" version="1.2"><defs><clipPath id="2360fb7556"><path d="M 146.050781 137.949219 L 209.800781 137.949219 L 209.800781 201.699219 L 146.050781 201.699219 Z M 146.050781 137.949219 "/></clipPath><clipPath id="bfa9347078"><path d="M 8.960938 43.097656 L 365.941406 43.097656 L 365.941406 331.847656 L 8.960938 331.847656 Z M 8.960938 43.097656 "/></clipPath></defs><g id="15b0edf1f1"><path style=" stroke:none;fill-rule:nonzero;fill:#000000;fill-opacity:1;" d="M 177.929688 152.902344 C 168.597656 152.902344 161.003906 160.492188 161.003906 169.824219 C 161.003906 179.15625 168.597656 186.746094 177.929688 186.746094 C 187.257812 186.746094 194.851562 179.15625 194.851562 169.824219 C 194.851562 160.492188 187.257812 152.902344 177.929688 152.902344 Z M 177.929688 180.773438 C 171.890625 180.773438 166.980469 175.859375 166.980469 169.824219 C 166.980469 163.785156 171.890625 158.875 177.929688 158.875 C 183.964844 158.875 188.878906 163.785156 188.878906 169.824219 C 188.878906 175.859375 183.964844 180.773438 177.929688 180.773438 Z M 177.929688 180.773438 "/><path style=" stroke:none;fill-rule:nonzero;fill:#000000;fill-opacity:1;" d="M 195.488281 148.839844 C 193.597656 148.839844 192.066406 150.375 192.066406 152.261719 C 192.066406 154.152344 193.597656 155.683594 195.488281 155.683594 C 197.375 155.683594 198.90625 154.152344 198.90625 152.261719 C 198.90625 150.375 197.375 148.839844 195.488281 148.839844 Z M 195.488281 148.839844 "/><g clip-rule="nonzero" clip-path="url(#2360fb7556)"><path style=" stroke:none;fill-rule:nonzero;fill:#000000;fill-opacity:1;" d="M 194.625 137.949219 L 161.230469 137.949219 C 152.863281 137.949219 146.050781 144.757812 146.050781 153.128906 L 146.050781 186.519531 C 146.050781 194.886719 152.863281 201.699219 161.230469 201.699219 L 194.625 201.699219 C 202.992188 201.699219 209.800781 194.886719 209.800781 186.519531 L 209.800781 153.128906 C 209.800781 144.757812 202.992188 137.949219 194.625 137.949219 Z M 203.828125 186.519531 C 203.828125 191.59375 199.699219 195.726562 194.625 195.726562 L 161.230469 195.726562 C 156.15625 195.726562 152.027344 191.59375 152.027344 186.519531 L 152.027344 153.128906 C 152.027344 148.050781 156.15625 143.921875 161.230469 143.921875 L 194.625 143.921875 C 199.699219 143.921875 203.828125 148.050781 203.828125 153.128906 Z M 203.828125 186.519531 "/></g><g clip-rule="nonzero" clip-path="url(#bfa9347078)"><path style=" stroke:none;fill-rule:nonzero;fill:#64b8b1;fill-opacity:1;" d="M 365.941406 77.25 C 352.667969 83.050781 338.515625 86.894531 323.773438 88.753906 C 338.945312 79.738281 350.523438 65.566406 355.964844 48.488281 C 341.820312 56.882812 326.207031 62.816406 309.5625 66.125 C 296.128906 51.886719 276.984375 43.070312 256.105469 43.070312 C 215.585938 43.070312 182.96875 75.808594 182.96875 115.945312 C 182.96875 121.71875 183.460938 127.269531 184.664062 132.558594 C 123.820312 129.601562 69.984375 100.574219 33.816406 56.351562 C 27.503906 67.253906 23.800781 79.738281 23.800781 93.175781 C 23.800781 118.40625 36.851562 140.773438 56.308594 153.722656 C 44.550781 153.5 33.015625 150.105469 23.242188 144.753906 L 23.242188 145.550781 C 23.242188 180.953125 48.613281 210.359375 81.875 217.132812 C 75.917969 218.757812 69.425781 219.535156 62.6875 219.535156 C 58.007812 219.535156 53.273438 219.265625 48.835938 218.292969 C 58.320312 247.144531 85.222656 268.355469 117.21875 269.042969 C 92.316406 288.433594 60.703125 300.113281 26.480469 300.113281 C 20.480469 300.113281 14.722656 299.851562 8.964844 299.117188 C 41.382812 319.929688 79.804688 331.808594 121.238281 331.808594 C 255.902344 331.808594 329.53125 220.757812 329.53125 124.496094 C 329.53125 121.273438 329.417969 118.164062 329.261719 115.078125 C 343.785156 104.816406 355.988281 92 365.941406 77.25 Z M 365.941406 77.25 "/></g></g></svg>