<svg xmlns="http://www.w3.org/2000/svg" xmlns:xlink="http://www.w3.org/1999/xlink" width="500" zoomAndPan="magnify" viewBox="0 0 375 374.999991" height="500" preserveAspectRatio="xMidYMid meet" version="1.2"><defs><clipPath id="da8c332307"><path d="M 112.5 112.5 L 262.5 112.5 L 262.5 262.5 L 112.5 262.5 Z M 112.5 112.5 "/></clipPath><clipPath id="a2c99fd588"><path d="M 32.246094 32.246094 L 342.746094 32.246094 L 342.746094 342.746094 L 32.246094 342.746094 Z M 32.246094 32.246094 "/></clipPath></defs><g id="fa5461227e"><path style=" stroke:none;fill-rule:nonzero;fill:#000000;fill-opacity:1;" d="M 187.5 147.683594 C 165.542969 147.683594 147.679688 165.539062 147.679688 187.496094 C 147.679688 209.453125 165.542969 227.316406 187.5 227.316406 C 209.457031 227.316406 227.320312 209.453125 227.320312 187.496094 C 227.320312 165.539062 209.457031 147.683594 187.5 147.683594 Z M 187.5 213.265625 C 173.292969 213.265625 161.738281 201.703125 161.738281 187.496094 C 161.738281 173.289062 173.292969 161.734375 187.5 161.734375 C 201.707031 161.734375 213.265625 173.289062 213.265625 187.496094 C 213.265625 201.703125 201.707031 213.265625 187.5 213.265625 Z M 187.5 213.265625 "/><path style=" stroke:none;fill-rule:nonzero;fill:#000000;fill-opacity:1;" d="M 228.816406 138.128906 C 224.375 138.128906 220.769531 141.734375 220.769531 146.179688 C 220.769531 150.628906 224.375 154.226562 228.816406 154.226562 C 233.261719 154.226562 236.863281 150.628906 236.863281 146.179688 C 236.863281 141.734375 233.261719 138.128906 228.816406 138.128906 Z M 228.816406 138.128906 "/><g clip-rule="nonzero" clip-path="url(#da8c332307)"><path style=" stroke:none;fill-rule:nonzero;fill:#000000;fill-opacity:1;" d="M 226.785156 112.503906 L 148.214844 112.503906 C 128.523438 112.503906 112.5 128.519531 112.5 148.210938 L 112.5 226.78125 C 112.5 246.472656 128.523438 262.496094 148.214844 262.496094 L 226.785156 262.496094 C 246.476562 262.496094 262.5 246.472656 262.5 226.78125 L 262.5 148.210938 C 262.5 128.519531 246.476562 112.503906 226.785156 112.503906 Z M 248.441406 226.78125 C 248.441406 238.722656 238.726562 248.445312 226.785156 248.445312 L 148.214844 248.445312 C 136.273438 248.445312 126.558594 238.722656 126.558594 226.78125 L 126.558594 148.210938 C 126.558594 136.269531 136.273438 126.554688 148.214844 126.554688 L 226.785156 126.554688 C 238.726562 126.554688 248.441406 136.269531 248.441406 148.210938 Z M 248.441406 226.78125 "/></g><g clip-rule="nonzero" clip-path="url(#a2c99fd588)"><path style=" stroke:none;fill-rule:nonzero;fill:#e52d27;fill-opacity:1;" d="M 342.746094 295.558594 C 342.746094 321.582031 321.582031 342.746094 295.558594 342.746094 L 79.433594 342.746094 C 53.410156 342.746094 32.246094 321.582031 32.246094 295.558594 L 32.246094 79.433594 C 32.246094 53.410156 53.410156 32.246094 79.433594 32.246094 L 295.558594 32.246094 C 321.582031 32.246094 342.746094 53.410156 342.746094 79.433594 Z M 342.746094 295.558594 "/></g><path style=" stroke:none;fill-rule:nonzero;fill:#ffffff;fill-opacity:1;" d="M 297.554688 189.953125 C 297.554688 207.121094 297.554688 225.316406 293.722656 241.945312 C 291.023438 253.660156 281.46875 262.246094 269.914062 263.542969 C 242.648438 266.566406 215.003906 266.621094 187.523438 266.566406 C 159.988281 266.566406 132.453125 266.566406 105.132812 263.542969 C 93.632812 262.246094 84.023438 253.660156 81.324219 241.945312 C 77.492188 225.316406 77.492188 207.121094 77.492188 189.953125 C 77.492188 172.785156 77.542969 154.589844 81.324219 137.960938 C 84.023438 126.246094 93.578125 117.660156 105.132812 116.363281 C 132.453125 113.285156 160.042969 113.285156 187.523438 113.285156 C 215.003906 113.285156 242.59375 113.285156 269.914062 116.363281 C 281.414062 117.660156 291.023438 126.246094 293.722656 137.960938 C 297.554688 154.589844 297.554688 172.785156 297.554688 189.953125 Z M 297.554688 189.953125 "/><path style=" stroke:none;fill-rule:nonzero;fill:#e52d27;fill-opacity:1;" d="M 164.363281 149.027344 L 164.363281 231.257812 L 228.234375 190.113281 Z M 164.363281 149.027344 "/></g></svg>